<svg width="30" height="30" viewBox="0 0 30 30" fill="none" xmlns="http://www.w3.org/2000/svg">
<path fill-rule="evenodd" clip-rule="evenodd" d="M13.9394 3.4395C14.2207 3.15829 14.6022 3.00032 14.9999 3.00032C15.3977 3.00032 15.7791 3.15829 16.0604 3.4395L26.5604 13.9395C26.7701 14.1493 26.9129 14.4165 26.9708 14.7075C27.0287 14.9984 26.9989 15.2999 26.8854 15.574C26.7719 15.848 26.5797 16.0823 26.3331 16.2471C26.0865 16.4119 25.7966 16.4999 25.4999 16.5H23.9999V25.5C23.9999 25.8978 23.8419 26.2794 23.5606 26.5607C23.2793 26.842 22.8977 27 22.4999 27H19.4999C19.1021 27 18.7206 26.842 18.4393 26.5607C18.158 26.2794 17.9999 25.8978 17.9999 25.5V21C17.9999 20.6022 17.8419 20.2206 17.5606 19.9393C17.2793 19.658 16.8977 19.5 16.4999 19.5H13.4999C13.1021 19.5 12.7206 19.658 12.4393 19.9393C12.158 20.2206 11.9999 20.6022 11.9999 21V25.5C11.9999 25.8978 11.8419 26.2794 11.5606 26.5607C11.2793 26.842 10.8977 27 10.4999 27H7.49992C7.1021 27 6.72057 26.842 6.43926 26.5607C6.15796 26.2794 5.99992 25.8978 5.99992 25.5V16.5H4.49992C4.2033 16.4999 3.91335 16.4119 3.66674 16.2471C3.42012 16.0823 3.22791 15.848 3.11441 15.574C3.0009 15.2999 2.9712 14.9984 3.02905 14.7075C3.0869 14.4165 3.22971 14.1493 3.43942 13.9395L13.9394 3.4395Z" fill="#C3CAD9"/>
</svg>
